<svg xmlns="http://www.w3.org/2000/svg" width="32" height="32" viewBox="0 0 32 32">
  <g transform="translate(1128.43 -1332.682)">
    <path
      fill="#484666"
      style="
        line-height: normal;
        font-variant-ligatures: normal;
        font-variant-position: normal;
        font-variant-caps: normal;
        font-variant-numeric: normal;
        font-variant-alternates: normal;
        font-feature-settings: normal;
        text-indent: 0;
        text-align: start;
        text-decoration-line: none;
        text-decoration-style: solid;
        text-decoration-color: #000;
        text-transform: none;
        text-orientation: mixed;
        shape-padding: 0;
        isolation: auto;
        mix-blend-mode: normal;
      "
      d="m -1107.9297,1337.6825 c 1.8253,0 3.2873,1.4262 3.4414,3.2129 l 2.3711,1.8965 a 0.50004997,0.50004997 0 0 1 -0.3125,0.8906 h -2 v 3.5 c 10e-5,4.6885 -3.8115,8.5 -8.5,8.5 -2.4087,0 -4.5107,-1.1465 -6.0117,-2.7656 -0.1876,-0.2024 -0.3664,-0.4127 -0.5352,-0.6289 a 0.49999997,0.49999997 0 0 1 -0.098,-0.2188 c -2.0317,-1.2606 -3.3555,-3.4379 -3.3555,-5.8867 a 0.50004997,0.50004997 0 0 1 0.5,-0.5 h 8.5 c 1.3867,0 2.5,-1.1133 2.5,-2.5 v -2 c 0,-1.9271 1.5729,-3.5 3.5,-3.5 z"
      color="#000"
      font-family="sans-serif"
      font-weight="400"
      overflow="visible"
      white-space="normal"
    />
    <path
      fill="#b1eaf1"
      style="
        line-height: normal;
        font-variant-ligatures: normal;
        font-variant-position: normal;
        font-variant-caps: normal;
        font-variant-numeric: normal;
        font-variant-alternates: normal;
        font-feature-settings: normal;
        text-indent: 0;
        text-align: start;
        text-decoration-line: none;
        text-decoration-style: solid;
        text-decoration-color: #000;
        text-transform: none;
        text-orientation: mixed;
        shape-padding: 0;
        isolation: auto;
        mix-blend-mode: normal;
      "
      d="m -1107.9297,1338.6825 c -1.3867,0 -2.5,1.1133 -2.5,2.5 v 2 c 0,1.9271 -1.5729,3.5 -3.5,3.5 h -7.9238 c 0.193,2.2581 1.5932,4.2447 3.7304,5.084 2.298,0.9024 4.91,0.3072 6.5899,-1.502 a 0.49999997,0.49999997 0 0 1 0.707,-0.025 0.49999997,0.49999997 0 0 1 0.025,0.7071 c -1.6518,1.7789 -4.0742,2.4765 -6.4023,2.0429 1.2165,0.9701 2.6271,1.6934 4.2734,1.6934 4.1481,0 7.5001,-3.3519 7.5,-7.5 v -4 a 0.50004997,0.50004997 0 0 1 0.5,-0.5 h 1.0742 l -1.3867,-1.1094 a 0.50004997,0.50004997 0 0 1 -0.1875,-0.3906 c 0,-1.3867 -1.1133,-2.5 -2.5,-2.5 z"
      color="#000"
      font-family="sans-serif"
      font-weight="400"
      overflow="visible"
      white-space="normal"
    />
    <path
      fill="#484666"
      fill-rule="evenodd"
      d="m -1110.4296,1355.1825 v 4 h -1 v -4 z"
      color="#000"
      font-family="sans-serif"
      font-weight="400"
      overflow="visible"
      white-space="normal"
      style="
        line-height: normal;
        font-variant-ligatures: normal;
        font-variant-position: normal;
        font-variant-caps: normal;
        font-variant-numeric: normal;
        font-variant-alternates: normal;
        font-feature-settings: normal;
        text-indent: 0;
        text-align: start;
        text-decoration-line: none;
        text-decoration-style: solid;
        text-decoration-color: #000;
        text-transform: none;
        text-orientation: mixed;
        shape-padding: 0;
        isolation: auto;
        mix-blend-mode: normal;
      "
    />
    <path
      fill="#484666"
      fill-rule="evenodd"
      d="M-1109.4296 1358.6825a.5.5 0 0 1 .5.5.5.5 0 0 1-.5.5h-2a.5.5 0 0 1-.5-.5.5.5 0 0 1 .5-.5zM-1114.4296 1355.1824v4h-1v-4z"
      color="#000"
      font-family="sans-serif"
      font-weight="400"
      overflow="visible"
      white-space="normal"
      style="
        line-height: normal;
        font-variant-ligatures: normal;
        font-variant-position: normal;
        font-variant-caps: normal;
        font-variant-numeric: normal;
        font-variant-alternates: normal;
        font-feature-settings: normal;
        text-indent: 0;
        text-align: start;
        text-decoration-line: none;
        text-decoration-style: solid;
        text-decoration-color: #000;
        text-transform: none;
        text-orientation: mixed;
        shape-padding: 0;
        isolation: auto;
        mix-blend-mode: normal;
      "
    />
    <path
      fill="#484666"
      fill-rule="evenodd"
      d="m -1113.4296,1358.6824 a 0.5,0.5 0 0 1 0.5,0.5 0.5,0.5 0 0 1 -0.5,0.5 h -2 a 0.5,0.5 0 0 1 -0.5,-0.5 0.5,0.5 0 0 1 0.5,-0.5 z"
      color="#000"
      font-family="sans-serif"
      font-weight="400"
      overflow="visible"
      white-space="normal"
      style="
        line-height: normal;
        font-variant-ligatures: normal;
        font-variant-position: normal;
        font-variant-caps: normal;
        font-variant-numeric: normal;
        font-variant-alternates: normal;
        font-feature-settings: normal;
        text-indent: 0;
        text-align: start;
        text-decoration-line: none;
        text-decoration-style: solid;
        text-decoration-color: #000;
        text-transform: none;
        text-orientation: mixed;
        shape-padding: 0;
        isolation: auto;
        mix-blend-mode: normal;
      "
    />
    <path
      fill="#fff"
      style="
        line-height: normal;
        font-variant-ligatures: normal;
        font-variant-position: normal;
        font-variant-caps: normal;
        font-variant-numeric: normal;
        font-variant-alternates: normal;
        font-feature-settings: normal;
        text-indent: 0;
        text-align: start;
        text-decoration-line: none;
        text-decoration-style: solid;
        text-decoration-color: #000;
        text-transform: none;
        text-orientation: mixed;
        shape-padding: 0;
        isolation: auto;
        mix-blend-mode: normal;
      "
      d="m -1107.4961,1330.7266 c -1.1687,0.2112 -2.0488,1.2229 -2.0488,2.455 v 2 c 0,1.9271 -1.5729,3.5 -3.5,3.5 h 1.0273 c 1.9271,0 3.5,-1.5729 3.5,-3.5 v -2 c 0,-1.0469 0.6352,-1.9351 1.543,-2.3086 -0.1656,-0.068 -0.34,-0.1149 -0.5215,-0.1464 z m -13.4727,7.955 c 0.1931,2.2581 1.5933,4.2447 3.7305,5.084 0.5905,0.2319 1.2004,0.355 1.8106,0.3926 0.1578,-0.013 0.3127,-0.045 0.4687,-0.07 -0.4222,-0.066 -0.8424,-0.1615 -1.2519,-0.3223 -2.1372,-0.8393 -3.5375,-2.8259 -3.7305,-5.084 z m 11.0508,4.2657 c 0,0 -2.8505,2.0268 -4.5566,2.1445 2.0656,0.1505 5.584,-2.1445 5.584,-2.1445 z m -5.4258,2.1425 c -0.2727,0.019 -0.5472,0.022 -0.8222,0.01 1.0739,0.8273 2.2945,1.4529 3.6933,1.5606 0.2117,-0.013 0.4205,-0.035 0.627,-0.064 -1.2294,-0.186 -2.323,-0.7488 -3.291,-1.4941 -0.069,0 -0.138,-0.01 -0.2071,-0.012 z"
      color="#000"
      font-family="sans-serif"
      font-weight="400"
      opacity=".3"
      overflow="visible"
      transform="translate(0 8)"
      white-space="normal"
    />
    <path
      fill="#484666"
      style="
        line-height: normal;
        font-variant-ligatures: normal;
        font-variant-position: normal;
        font-variant-caps: normal;
        font-variant-numeric: normal;
        font-variant-alternates: normal;
        font-feature-settings: normal;
        text-indent: 0;
        text-align: start;
        text-decoration-line: none;
        text-decoration-style: solid;
        text-decoration-color: #000;
        text-transform: none;
        text-orientation: mixed;
        shape-padding: 0;
        isolation: auto;
        mix-blend-mode: normal;
      "
      d="m -1108.9297,1342.1825 a 0.5,0.5 0 0 1 -0.5,-0.5 c 0,-0.5351 0.2866,-1.0313 0.75,-1.2988 0.4634,-0.2676 1.0366,-0.2676 1.5,0 0.4634,0.2675 0.75,0.7637 0.75,1.2988 a 0.5,0.5 0 0 1 -0.5,0.5 0.5,0.5 0 0 1 -0.5,-0.5 c 0,-0.1794 -0.095,-0.3439 -0.25,-0.4336 -0.1554,-0.09 -0.3446,-0.09 -0.5,0 -0.1554,0.09 -0.25,0.2542 -0.25,0.4336 a 0.5,0.5 0 0 1 -0.5,0.5 z"
      color="#000"
      font-family="sans-serif"
      font-weight="400"
      overflow="visible"
      white-space="normal"
    />
  </g>
</svg>
